<svg width="431" height="105" viewBox="0 0 431 105" fill="none" xmlns="http://www.w3.org/2000/svg">
<path d="M133.005 9.6521L135.04 9.90649L136.821 11.4329L137.584 12.9592L137.33 15.2488L135.04 19.5735L131.479 25.679L127.408 33.0564L124.355 38.3987L121.048 44.2498L116.978 51.3728L114.434 55.9519L111.127 61.803L104.004 74.5227L101.46 78.8474L99.4248 81.3914L96.8809 83.4265L93.0649 85.2073L90.7754 85.7161H86.9595L83.6523 84.9529L78.8188 82.4089L71.6958 78.0842L67.6255 75.7947L60.5024 71.47L55.9233 68.926L53.8882 68.6716L50.8354 70.7068L45.4932 74.7771L40.6597 78.3386L35.3174 82.4089L32.519 84.4441L24.3784 90.5496L19.5449 94.1111L14.457 97.927L10.6411 100.725L9.62354 101.234H7.84277L6.06201 100.217L5.04443 98.6902L4.79004 96.9094L5.80762 94.3655L8.09717 90.2952L11.6587 83.9353L14.7114 78.593L21.3257 66.8909L24.8872 60.531L28.4487 54.4255L31.7559 48.3201L34.2998 43.9954L38.1157 37.1267L41.1685 31.7844L43.458 29.2405L46.002 27.2053L48.8003 25.9333L52.3618 25.1702H54.6514L58.2129 25.9333L62.2832 27.9685L70.4238 32.802L76.5293 36.3635L83.9067 40.6882L87.4683 42.469L89.7578 41.4514L93.3193 38.9075L97.3896 35.8547L102.223 32.2932L106.293 29.2405L111.127 25.679L115.452 22.3718L119.013 19.8279L123.083 16.7751L127.917 13.2136L131.987 10.1609L133.005 9.6521Z" fill="#010101"/>
<path d="M375.188 28.9861H381.803L386.382 29.7493L391.215 31.53L394.522 33.8196L396.558 35.8547L398.593 39.1619L399.865 42.7234L400.374 45.5217V88.5144H391.47L391.215 87.2424V80.6282L390.198 81.9001L388.417 84.1897L386.127 86.2249L382.566 88.26L378.75 89.532L376.969 89.7864H370.355L366.539 89.0232L363.232 87.7512L359.925 85.7161L357.381 83.4265L355.6 80.8826L354.074 77.321L353.565 75.2859L353.311 70.7068L353.819 67.1453L355.091 64.0925L356.618 61.803L358.398 60.0222L361.706 57.9871L365.521 56.4607L370.864 55.1887L377.478 54.1711L386.891 52.8992L389.689 52.136L390.961 50.6096L391.215 49.592V47.5569L390.452 43.9954L389.18 41.4514L387.399 39.4163L384.347 37.8899L381.548 37.3811H375.697L371.627 38.3987L368.829 39.925L366.285 42.2146L363.741 45.7761L362.469 45.5217L355.346 42.9778L355.091 42.2146L357.126 38.6531L359.925 35.3459L363.232 32.802L367.302 30.7668L370.609 29.7493L375.188 28.9861Z" fill="#010101"/>
<path d="M306.502 9.14331H314.388L317.95 9.6521L322.529 10.9241L327.108 12.9592L330.924 15.5032L333.977 18.3015L335.757 20.0823L338.047 23.3894L340.082 27.2053L341.608 31.7844L342.117 34.5828L341.863 34.8372H332.959L332.45 34.5828L331.178 30.7668L329.143 26.9509L326.345 23.8982L323.292 21.6086L319.73 19.8279L316.169 18.8103L312.099 18.3015H308.792L304.721 18.8103L300.905 20.0823L297.089 22.1174L293.528 25.1702L290.984 28.2229L288.694 32.2932L286.914 37.1267L285.896 41.7058L285.642 43.9954V54.6799L286.405 59.259L287.422 63.075L289.203 67.3997L291.493 70.9612L294.291 74.2683L296.835 76.3035L299.888 78.0842L303.195 79.3562L306.248 80.1194L309.046 80.3738H312.099L315.915 79.865L319.985 78.593L324.055 76.5579L326.345 74.7771L328.634 72.4875L330.669 69.1804L331.941 65.8733L332.705 63.8381H341.863L342.117 64.8557L340.591 70.198L338.556 74.5227L336.266 77.8298L333.468 80.8826L331.178 82.9177L327.362 85.4617L323.038 87.4968L317.695 89.0232L314.134 89.532H307.265L302.432 88.7688L298.107 87.4968L294.037 85.4617L290.475 83.1721L287.168 80.3738L284.624 77.5754L282.334 74.2683L280.045 70.198L278.01 64.8557L276.738 59.7678L275.975 53.6624V45.5217L276.738 38.6531L278.264 33.0564L280.299 27.9685L282.843 23.6438L285.133 20.5911L287.931 17.5383L290.984 14.9944L295.563 12.196L299.379 10.6697L303.195 9.6521L306.502 9.14331Z" fill="#010101"/>
<path d="M151.321 10.1609H198.13L198.384 11.1785L198.13 18.5559L197.621 18.8103H160.734V45.0129H194.568V53.408L194.06 53.6624L160.734 53.9167V88.5144H151.321L151.067 88.26V10.4153L151.321 10.1609Z" fill="#010101"/>
<path d="M242.395 15.5032H251.298L251.553 15.7576V29.7493L259.693 29.4949H263.764L264.018 29.7493V37.3811L263.764 37.6355H251.553L251.807 74.0139L252.825 77.321L254.351 79.1018L257.149 80.1194H263.509L265.036 87.2424L264.781 88.26L262.492 89.0232L260.965 89.2776H256.386L252.062 88.26L248.246 86.2249L245.447 83.6809L243.667 80.8826L242.649 77.8298L242.395 76.3035V37.6355H233.745L233.491 37.3811V29.7493L233.745 29.4949H242.395V15.5032Z" fill="#010101"/>
<path d="M416.909 10.1609H425.813V88.5144H416.909L416.655 88.26V10.4153L416.909 10.1609Z" fill="#010101"/>
<path d="M213.394 29.4949H221.789L222.297 29.7493V88.5144H213.139V29.7493L213.394 29.4949Z" fill="#010101"/>
<path d="M390.707 59.259H391.47V66.8909L390.961 70.7068L389.689 73.7595L387.908 76.5579L385.619 78.593L383.075 80.1194L379.004 81.3914L377.224 81.6458H372.645L369.083 80.8826L365.521 79.1018L363.741 77.0667L362.723 74.7771L362.469 73.5051V70.9612L363.232 68.4172L364.758 66.3821L366.793 64.8557L369.592 63.5837L375.443 62.3118L384.601 61.0398L389.18 60.0222L390.707 59.259Z" fill="#FEFEFE"/>
<path d="M216.955 7.61694L219.753 7.87134L222.043 9.14331L223.569 10.9241L224.333 12.7048V14.9944L223.569 16.7751L221.789 18.8103L220.008 19.8279L218.736 20.0823H216.701L214.157 19.0647L212.63 17.7927L211.613 16.012L211.358 14.9944V12.7048L212.122 10.6697L213.139 9.39771L215.683 7.87134L216.955 7.61694Z" fill="#010101"/>
</svg>
