<svg width="32" height="22" viewBox="0 0 32 22" fill="none" xmlns="http://www.w3.org/2000/svg">
<path d="M30.8966 0L31.387 0.0611111L31.8161 0.427778L32 0.794444L31.9387 1.34444L31.387 2.38333L30.5287 3.85L29.5479 5.62222L28.8123 6.90556L28.0153 8.31111L27.0345 10.0222L26.4215 11.1222L25.6245 12.5278L23.908 15.5833L23.295 16.6222L22.8046 17.2333L22.1916 17.7222L21.272 18.15L20.7203 18.2722H19.8008L19.0038 18.0889L17.8391 17.4778L16.1226 16.4389L15.1418 15.8889L13.4253 14.85L12.3218 14.2389L11.8314 14.1778L11.0958 14.6667L9.80843 15.6444L8.64368 16.5L7.35632 17.4778L6.68199 17.9667L4.72031 19.4333L3.55556 20.2889L2.3295 21.2056L1.40996 21.8778L1.16475 22H0.735632L0.306513 21.7556L0.0613027 21.3889L0 20.9611L0.245211 20.35L0.796935 19.3722L1.65517 17.8444L2.3908 16.5611L3.98467 13.75L4.84291 12.2222L5.70115 10.7556L6.49808 9.28889L7.11111 8.25L8.03065 6.6L8.76628 5.31667L9.31801 4.70556L9.93103 4.21667L10.6054 3.91111L11.4636 3.72778H12.0153L12.8736 3.91111L13.8544 4.4L15.8161 5.56111L17.2874 6.41667L19.0651 7.45556L19.9234 7.88333L20.4751 7.63889L21.3333 7.02778L22.3142 6.29444L23.4789 5.43889L24.4598 4.70556L25.6245 3.85L26.6667 3.05556L27.5249 2.44444L28.5057 1.71111L29.6705 0.855556L30.6513 0.122222L30.8966 0Z" fill="#010101"/>
</svg>
